<svg width="24" height="25" viewBox="0 0 24 25" fill="none" xmlns="http://www.w3.org/2000/svg">
<path d="M14.5125 9.03858C14.5125 8.96953 14.5093 8.90048 14.5028 8.83168C14.496 8.76288 14.4863 8.69459 14.473 8.62681C14.4598 8.55903 14.4433 8.49202 14.4238 8.42577C14.404 8.35977 14.3813 8.29454 14.3553 8.23084C14.3293 8.16689 14.3005 8.10446 14.2685 8.04356C14.2365 7.9824 14.2018 7.92329 14.1643 7.8657C14.1265 7.80837 14.0863 7.75282 14.0433 7.69931C14.0003 7.6458 13.9548 7.59459 13.907 7.54566C13.859 7.497 13.8088 7.45062 13.7565 7.40654C13.704 7.36271 13.6498 7.32169 13.5935 7.28321C13.537 7.24474 13.479 7.20932 13.4193 7.1767C13.3595 7.14409 13.2983 7.11453 13.2358 7.08803C13.1733 7.06153 13.1095 7.03834 13.0445 7.01821C12.9798 6.99808 12.914 6.98127 12.8475 6.96776C12.7813 6.95426 12.7143 6.94406 12.6468 6.93744C12.5793 6.93056 12.5118 6.92725 12.444 6.92725C12.3763 6.92725 12.3085 6.93056 12.2413 6.93744C12.1738 6.94406 12.1068 6.95426 12.0403 6.96776C11.9738 6.98127 11.9083 6.99783 11.8433 7.01796C11.7785 7.03809 11.7148 7.06127 11.652 7.08777C11.5895 7.11427 11.5283 7.14383 11.4685 7.17619C11.4088 7.20881 11.3508 7.24448 11.2943 7.2827C11.238 7.32118 11.1838 7.3622 11.1313 7.40628C11.0788 7.45011 11.0288 7.49649 10.9808 7.54515C10.9328 7.59408 10.8875 7.64529 10.8445 7.6988C10.8015 7.75231 10.761 7.80761 10.7235 7.86519C10.6858 7.92252 10.651 7.9819 10.619 8.04279C10.587 8.10369 10.558 8.16612 10.5323 8.23008C10.5063 8.29403 10.4835 8.35901 10.4638 8.42526C10.444 8.49126 10.4275 8.55827 10.4145 8.62605C10.4013 8.69383 10.3913 8.76212 10.3845 8.83091C10.378 8.89971 10.3745 8.96877 10.3745 9.03807C10.3745 9.10713 10.378 9.17618 10.3845 9.24498C10.3913 9.31377 10.401 9.38206 10.4143 9.44984C10.4275 9.51762 10.444 9.58464 10.4638 9.65089C10.4833 9.71688 10.506 9.78186 10.532 9.84581C10.558 9.90977 10.587 9.9722 10.6188 10.0331C10.6508 10.094 10.6855 10.1534 10.7233 10.2107C10.7608 10.2683 10.8013 10.3238 10.8443 10.3773C10.8873 10.4306 10.9325 10.4818 10.9805 10.5307C11.0285 10.5797 11.0785 10.626 11.131 10.6699C11.1833 10.7137 11.2378 10.755 11.294 10.7932C11.3505 10.8317 11.4085 10.8671 11.4683 10.8997C11.528 10.9323 11.5893 10.9619 11.6518 10.9884C11.7145 11.0149 11.778 11.0381 11.843 11.0582C11.9078 11.0783 11.9735 11.0951 12.04 11.1084C12.1065 11.1219 12.1733 11.1321 12.2408 11.139C12.3083 11.1456 12.3758 11.1492 12.4435 11.1492C12.5113 11.1492 12.579 11.1456 12.6463 11.139C12.7138 11.1321 12.7808 11.1219 12.8473 11.1086C12.9135 11.0951 12.9793 11.0783 13.044 11.0582C13.109 11.0381 13.1728 11.0149 13.2353 10.9884C13.2978 10.9619 13.359 10.9326 13.4188 10.9C13.4785 10.8673 13.5365 10.8319 13.593 10.7934C13.6493 10.755 13.7035 10.7139 13.756 10.6701C13.8083 10.6263 13.8585 10.5799 13.9065 10.531C13.9543 10.4821 13.9998 10.4309 14.0428 10.3776C14.0858 10.3241 14.126 10.2685 14.1638 10.2112C14.2013 10.1536 14.2363 10.0945 14.268 10.0336C14.3 9.97271 14.329 9.91028 14.355 9.84632C14.381 9.78237 14.4038 9.71739 14.4233 9.65139C14.443 9.58514 14.4595 9.51813 14.4728 9.45035C14.486 9.38257 14.496 9.31428 14.5025 9.24549C14.5093 9.17669 14.5125 9.10789 14.5125 9.03858Z" fill="#FFCC00"/>
<mask id="mask0_1168_1201" style="mask-type:luminance" maskUnits="userSpaceOnUse" x="8" y="19" width="8" height="3">
<path d="M8.896 19.1777H16V21.4282H8.896V19.1777Z" fill="white"/>
</mask>
<g mask="url(#mask0_1168_1201)">
<path d="M14.3103 19.2261C13.8356 19.7393 13.4251 20.1462 13.1406 20.4196C13.0483 20.5116 12.9428 20.5827 12.8236 20.6326C12.7043 20.6828 12.5803 20.7083 12.4513 20.7093C12.3138 20.7073 12.1816 20.679 12.0548 20.6239C11.9278 20.5692 11.8161 20.492 11.7191 20.3923C11.4398 20.124 11.0411 19.7263 10.5776 19.2261C9.59058 19.4371 8.93408 19.8109 8.93408 20.2369C8.93408 20.8958 10.5053 21.4304 12.4438 21.4304C14.3826 21.4304 15.9531 20.8958 15.9531 20.2369C15.9531 19.8109 15.2973 19.4378 14.3103 19.2261Z" fill="#FFCC00"/>
</g>
<mask id="mask1_1168_1201" style="mask-type:luminance" maskUnits="userSpaceOnUse" x="6" y="2" width="13" height="19">
<path d="M6.05908 2.44604H18.8271V20.1562H6.05908V2.44604Z" fill="white"/>
</mask>
<g mask="url(#mask1_1168_1201)">
<path d="M11.2991 19.1084L11.4189 19.2343L11.4381 19.2539C11.4696 19.2868 11.5006 19.3189 11.5316 19.35C11.5406 19.3596 11.5499 19.3696 11.5594 19.3788L11.6434 19.4651C11.6514 19.472 11.6584 19.4804 11.6659 19.4873C11.7349 19.5579 11.8006 19.6231 11.8621 19.6843L11.8861 19.7077L11.9481 19.7694L11.9781 19.7989L12.0316 19.8535L12.0566 19.8779L12.1284 19.9472C12.1526 19.9702 12.1781 19.9916 12.2054 20.0109C12.2136 20.0168 12.2224 20.0221 12.2314 20.027C12.2486 20.0385 12.2664 20.0486 12.2849 20.0573C12.2956 20.0624 12.3064 20.065 12.3171 20.0695C12.3324 20.0759 12.3481 20.0815 12.3641 20.0859C12.3751 20.0881 12.3864 20.0899 12.3976 20.0907C12.4126 20.0938 12.4276 20.0958 12.4426 20.096H12.4501C12.4619 20.096 12.4731 20.0935 12.4849 20.0922L12.5164 20.0892C12.5314 20.0853 12.5459 20.081 12.5604 20.0759C12.5699 20.0726 12.5796 20.0706 12.5891 20.0667C12.6056 20.0588 12.6214 20.0502 12.6366 20.0405C12.6441 20.0357 12.6521 20.0329 12.6596 20.028C12.6836 20.0114 12.7064 19.9934 12.7276 19.9735L12.8019 19.9019L12.8179 19.8861C12.8404 19.8644 12.8644 19.8415 12.8886 19.8175L12.9024 19.8038C12.9934 19.7149 13.0959 19.6134 13.2094 19.4988L13.2126 19.495C13.3249 19.3816 13.4459 19.2567 13.5756 19.1204L13.5866 19.1089C15.4216 17.1795 18.8181 13.0814 18.8181 9.18518C18.8181 5.46346 15.8241 2.44653 12.4426 2.44653C9.06112 2.44653 6.06787 5.46295 6.06787 9.18467C6.06787 13.0804 9.46437 17.179 11.2991 19.1084ZM9.01312 9.03841C9.01312 8.92375 9.01862 8.80959 9.02962 8.69544C9.04062 8.58128 9.05712 8.46815 9.07912 8.35578C9.10087 8.24315 9.12837 8.13231 9.16087 8.02249C9.19362 7.91292 9.23137 7.80488 9.27437 7.69914C9.31737 7.59314 9.36537 7.48969 9.41837 7.38853C9.47137 7.28762 9.52912 7.18927 9.59137 7.09397C9.65387 6.99867 9.72087 6.90669 9.79212 6.81827C9.86337 6.7296 9.93862 6.64474 10.0181 6.56372C10.0976 6.48269 10.1809 6.40574 10.2676 6.33312C10.3546 6.26024 10.4446 6.19221 10.5381 6.1285C10.6316 6.0648 10.7279 6.00594 10.8269 5.95192C10.9259 5.8979 11.0274 5.84898 11.1311 5.80515C11.2351 5.76133 11.3406 5.7226 11.4481 5.68947C11.5556 5.65609 11.6646 5.62832 11.7749 5.60589C11.8849 5.58373 11.9959 5.56691 12.1079 5.5557C12.2196 5.54449 12.3316 5.53888 12.4441 5.53888C12.5564 5.53888 12.6686 5.54449 12.7804 5.5557C12.8921 5.56691 13.0031 5.58373 13.1134 5.60615C13.2236 5.62857 13.3324 5.65635 13.4399 5.68973C13.5474 5.72285 13.6531 5.76158 13.7569 5.80541C13.8606 5.84924 13.9621 5.89816 14.0611 5.95218C14.1604 6.0062 14.2566 6.06506 14.3499 6.12876C14.4434 6.19246 14.5334 6.26075 14.6204 6.33362C14.7071 6.40624 14.7904 6.4832 14.8699 6.56423C14.9491 6.64525 15.0246 6.73011 15.0959 6.81878C15.1671 6.90745 15.2339 6.99944 15.2964 7.09474C15.3589 7.19003 15.4164 7.28813 15.4694 7.38929C15.5224 7.49045 15.5704 7.5939 15.6134 7.6999C15.6564 7.80565 15.6941 7.91343 15.7266 8.02325C15.7594 8.13282 15.7866 8.24392 15.8086 8.35629C15.8304 8.46891 15.8469 8.58205 15.8579 8.6962C15.8689 8.81036 15.8744 8.92451 15.8744 9.03917C15.8744 9.15384 15.8689 9.26825 15.8579 9.3824C15.8469 9.4963 15.8304 9.60969 15.8084 9.72206C15.7866 9.83443 15.7594 9.94552 15.7266 10.0553C15.6941 10.1649 15.6561 10.2727 15.6131 10.3787C15.5701 10.4844 15.5221 10.5881 15.4694 10.6891C15.4164 10.7902 15.3586 10.8886 15.2961 10.9839C15.2336 11.0792 15.1669 11.1711 15.0956 11.2596C15.0244 11.3482 14.9489 11.4331 14.8696 11.5141C14.7901 11.5951 14.7069 11.6721 14.6201 11.7447C14.5331 11.8176 14.4431 11.8856 14.3496 11.9493C14.2561 12.013 14.1599 12.0719 14.0609 12.1259C13.9619 12.1799 13.8604 12.2291 13.7566 12.2729C13.6526 12.3168 13.5471 12.3552 13.4396 12.3886C13.3321 12.4217 13.2231 12.4498 13.1129 12.4719C13.0029 12.4944 12.8919 12.5112 12.7799 12.5224C12.6681 12.5336 12.5561 12.5392 12.4436 12.5392C12.3314 12.5392 12.2191 12.5336 12.1074 12.5224C11.9956 12.5112 11.8846 12.4944 11.7744 12.4722C11.6641 12.4498 11.5551 12.422 11.4476 12.3886C11.3401 12.3555 11.2344 12.3168 11.1306 12.2729C11.0269 12.2291 10.9254 12.1802 10.8261 12.1262C10.7271 12.0721 10.6309 12.013 10.5374 11.9493C10.4439 11.8856 10.3539 11.8176 10.2669 11.7447C10.1801 11.6721 10.0969 11.5951 10.0176 11.5141C9.93812 11.4331 9.86262 11.3482 9.79137 11.2596C9.72012 11.1709 9.65337 11.0789 9.59087 10.9836C9.52837 10.8883 9.47062 10.79 9.41787 10.6888C9.36487 10.5876 9.31687 10.4842 9.27387 10.3782C9.23087 10.2722 9.19312 10.1644 9.16062 10.0548C9.12787 9.94501 9.10062 9.83392 9.07887 9.72155C9.05687 9.60892 9.04037 9.49579 9.02937 9.38163C9.01837 9.26748 9.01287 9.15307 9.01312 9.03841Z" fill="#FFCC00"/>
</g>
</svg>
