<svg width="24" height="24" viewBox="0 0 24 24" fill="none" xmlns="http://www.w3.org/2000/svg">
<path d="M14.2391 8.86801C14.2391 8.80026 14.2359 8.73251 14.2296 8.66501C14.2229 8.59751 14.2134 8.53051 14.2004 8.46401C14.1874 8.39751 14.1712 8.33176 14.152 8.26676C14.1327 8.20201 14.1104 8.13801 14.0848 8.07551C14.0593 8.01276 14.0311 7.95151 13.9997 7.89176C13.9683 7.83176 13.9342 7.77376 13.8974 7.71726C13.8604 7.66101 13.8209 7.60651 13.7787 7.55401C13.7365 7.50151 13.6919 7.45126 13.645 7.40326C13.598 7.35551 13.5487 7.31001 13.4974 7.26676C13.4459 7.22376 13.3927 7.18351 13.3375 7.14576C13.282 7.10801 13.2251 7.07326 13.1665 7.04126C13.1079 7.00926 13.0478 6.98026 12.9865 6.95426C12.9251 6.92826 12.8626 6.90551 12.7988 6.88576C12.7353 6.86601 12.6708 6.84951 12.6055 6.83626C12.5405 6.82301 12.4748 6.81301 12.4086 6.80651C12.3424 6.79976 12.2761 6.79651 12.2097 6.79651C12.1432 6.79651 12.0767 6.79976 12.0107 6.80651C11.9445 6.81301 11.8788 6.82301 11.8135 6.83626C11.7483 6.84951 11.684 6.86576 11.6202 6.88551C11.5567 6.90526 11.4942 6.92801 11.4326 6.95401C11.3713 6.98001 11.3112 7.00901 11.2526 7.04076C11.1939 7.07276 11.137 7.10776 11.0816 7.14526C11.0264 7.18301 10.9732 7.22326 10.9217 7.26651C10.8702 7.30951 10.8211 7.35501 10.774 7.40276C10.7269 7.45076 10.6825 7.50101 10.6403 7.55351C10.5981 7.60601 10.5584 7.66026 10.5216 7.71676C10.4846 7.77301 10.4505 7.83126 10.4191 7.89101C10.3877 7.95076 10.3592 8.01201 10.334 8.07476C10.3085 8.13751 10.2861 8.20126 10.2668 8.26626C10.2474 8.33101 10.2312 8.39676 10.2184 8.46326C10.2054 8.52976 10.1956 8.59676 10.189 8.66426C10.1826 8.73176 10.1792 8.79951 10.1792 8.86751C10.1792 8.93526 10.1826 9.00301 10.189 9.07051C10.1956 9.13801 10.2052 9.20501 10.2182 9.27151C10.2312 9.33801 10.2474 9.40376 10.2668 9.46876C10.2859 9.53351 10.3082 9.59726 10.3337 9.66001C10.3592 9.72276 10.3877 9.78401 10.4188 9.84376C10.4502 9.90351 10.4843 9.96176 10.5214 10.018C10.5582 10.0745 10.5979 10.129 10.6401 10.1815C10.6823 10.2338 10.7267 10.284 10.7738 10.332C10.8209 10.38 10.8699 10.4255 10.9214 10.4685C10.9727 10.5115 11.0262 10.552 11.0814 10.5895C11.1368 10.6273 11.1937 10.662 11.2523 10.694C11.3109 10.726 11.371 10.755 11.4324 10.781C11.4939 10.807 11.5562 10.8298 11.62 10.8495C11.6835 10.8693 11.748 10.8858 11.8133 10.8988C11.8785 10.912 11.944 10.922 12.0102 10.9288C12.0765 10.9353 12.1427 10.9388 12.2092 10.9388C12.2756 10.9388 12.3421 10.9353 12.4081 10.9288C12.4743 10.922 12.54 10.912 12.6053 10.899C12.6703 10.8858 12.7348 10.8693 12.7983 10.8495C12.8621 10.8298 12.9247 10.807 12.986 10.781C13.0473 10.755 13.1074 10.7263 13.166 10.6943C13.2246 10.6623 13.2815 10.6275 13.337 10.5898C13.3922 10.552 13.4454 10.5118 13.4969 10.4688C13.5482 10.4258 13.5975 10.3803 13.6446 10.3323C13.6914 10.2843 13.736 10.234 13.7782 10.1818C13.8204 10.1293 13.8599 10.0748 13.897 10.0185C13.9337 9.96201 13.9681 9.90401 13.9992 9.84426C14.0306 9.78451 14.0591 9.72326 14.0846 9.66051C14.1101 9.59776 14.1324 9.53401 14.1516 9.46926C14.1709 9.40426 14.1871 9.33851 14.2001 9.27201C14.2131 9.20551 14.2229 9.13851 14.2293 9.07101C14.2359 9.00351 14.2391 8.93601 14.2391 8.86801Z" fill="#FFCC00"/>
<mask id="mask0_1275_2214" style="mask-type:luminance" maskUnits="userSpaceOnUse" x="8" y="18" width="8" height="4">
<path d="M8.72803 18.816H15.698V21.024H8.72803V18.816Z" fill="white"/>
</mask>
<g mask="url(#mask0_1275_2214)">
<path d="M14.0399 18.8635C13.5742 19.367 13.1714 19.7663 12.8923 20.0345C12.8018 20.1248 12.6983 20.1945 12.5813 20.2435C12.4643 20.2928 12.3426 20.3178 12.216 20.3188C12.0811 20.3168 11.9514 20.289 11.827 20.235C11.7024 20.1813 11.5928 20.1055 11.4976 20.0078C11.2236 19.7445 10.8324 19.3543 10.3776 18.8635C9.40925 19.0705 8.76514 19.4373 8.76514 19.8553C8.76514 20.5018 10.3067 21.0263 12.2087 21.0263C14.1108 21.0263 15.6517 20.5018 15.6517 19.8553C15.6517 19.4373 15.0083 19.0713 14.0399 18.8635Z" fill="#FFCC00"/>
</g>
<mask id="mask1_1275_2214" style="mask-type:luminance" maskUnits="userSpaceOnUse" x="5" y="2" width="14" height="18">
<path d="M5.94482 2.40002H18.4719V19.776H5.94482V2.40002Z" fill="white"/>
</mask>
<g mask="url(#mask1_1275_2214)">
<path d="M11.0862 18.748L11.2037 18.8715L11.2225 18.8908C11.2534 18.923 11.2839 18.9545 11.3143 18.985C11.3231 18.9945 11.3322 19.0043 11.3415 19.0133L11.4239 19.098C11.4318 19.1048 11.4386 19.113 11.446 19.1198C11.5137 19.189 11.5782 19.253 11.6385 19.313L11.6621 19.336L11.7229 19.3965L11.7523 19.4255L11.8048 19.479L11.8294 19.503L11.8998 19.571C11.9236 19.5935 11.9486 19.6145 11.9753 19.6335C11.9834 19.6393 11.992 19.6445 12.0008 19.6493C12.0177 19.6605 12.0352 19.6705 12.0533 19.679C12.0639 19.684 12.0744 19.6865 12.085 19.691C12.0999 19.6973 12.1154 19.7028 12.1311 19.707C12.1419 19.7093 12.1529 19.711 12.1639 19.7118C12.1787 19.7148 12.1934 19.7168 12.2081 19.717H12.2154C12.227 19.717 12.238 19.7145 12.2495 19.7133L12.2804 19.7103C12.2952 19.7065 12.3094 19.7023 12.3236 19.6973C12.3329 19.694 12.3425 19.692 12.3518 19.6883C12.368 19.6805 12.3835 19.672 12.3984 19.6625C12.4058 19.6578 12.4136 19.655 12.421 19.6503C12.4445 19.634 12.4669 19.6163 12.4877 19.5968L12.5606 19.5265L12.5763 19.511C12.5983 19.4898 12.6219 19.4673 12.6457 19.4438L12.6592 19.4303C12.7484 19.343 12.849 19.2435 12.9604 19.131L12.9636 19.1273C13.0737 19.016 13.1924 18.8935 13.3197 18.7598L13.3305 18.7485C15.1309 16.8555 18.4633 12.8348 18.4633 9.01201C18.4633 5.36051 15.5258 2.40051 12.2081 2.40051C8.89039 2.40051 5.95361 5.36001 5.95361 9.01151C5.95361 12.8338 9.28603 16.855 11.0862 18.748ZM8.84329 8.86801C8.84329 8.75551 8.84869 8.64351 8.85948 8.53151C8.87027 8.41951 8.88646 8.30851 8.90805 8.19826C8.92939 8.08776 8.95637 7.97901 8.98826 7.87126C9.02039 7.76376 9.05742 7.65776 9.09961 7.55401C9.1418 7.45001 9.1889 7.34851 9.2409 7.24926C9.2929 7.15026 9.34956 7.05376 9.41063 6.96026C9.47195 6.86676 9.53769 6.77651 9.60759 6.68976C9.6775 6.60276 9.75133 6.51951 9.82933 6.44001C9.90733 6.36051 9.98901 6.28501 10.0741 6.21376C10.1595 6.14226 10.2478 6.07551 10.3395 6.01301C10.4313 5.95051 10.5257 5.89276 10.6228 5.83976C10.72 5.78676 10.8195 5.73876 10.9213 5.69576C11.0234 5.65276 11.1269 5.61476 11.2323 5.58226C11.3378 5.54951 11.4448 5.52226 11.5529 5.50026C11.6609 5.47851 11.7698 5.46201 11.8797 5.45101C11.9893 5.44001 12.0992 5.43451 12.2096 5.43451C12.3197 5.43451 12.4298 5.44001 12.5395 5.45101C12.6491 5.46201 12.758 5.47851 12.8662 5.50051C12.9743 5.52251 13.081 5.54976 13.1865 5.58251C13.292 5.61501 13.3957 5.65301 13.4975 5.69601C13.5993 5.73901 13.6989 5.78701 13.796 5.84001C13.8934 5.89301 13.9879 5.95076 14.0793 6.01326C14.1711 6.07576 14.2594 6.14276 14.3447 6.21426C14.4299 6.28551 14.5115 6.36101 14.5895 6.44051C14.6673 6.52001 14.7414 6.60326 14.8113 6.69026C14.8812 6.77726 14.9467 6.86751 15.008 6.96101C15.0693 7.05451 15.1257 7.15076 15.1777 7.25001C15.2297 7.34926 15.2768 7.45076 15.319 7.55476C15.3612 7.65851 15.3982 7.76426 15.4301 7.87201C15.4623 7.97951 15.489 8.08851 15.5106 8.19876C15.5319 8.30926 15.5481 8.42026 15.5589 8.53226C15.5697 8.64426 15.5751 8.75626 15.5751 8.86876C15.5751 8.98126 15.5697 9.09351 15.5589 9.20551C15.5481 9.31726 15.5319 9.42851 15.5103 9.53876C15.489 9.64901 15.4623 9.75801 15.4301 9.86576C15.3982 9.97326 15.361 10.079 15.3188 10.183C15.2766 10.2868 15.2295 10.3885 15.1777 10.4875C15.1257 10.5868 15.0691 10.6833 15.0077 10.7768C14.9464 10.8703 14.8809 10.9605 14.811 11.0473C14.7411 11.1343 14.667 11.2175 14.5893 11.297C14.5113 11.3765 14.4296 11.452 14.3445 11.5233C14.2591 11.5948 14.1708 11.6615 14.0791 11.724C13.9874 11.7865 13.8929 11.8443 13.7958 11.8973C13.6987 11.9503 13.5991 11.9985 13.4973 12.0415C13.3953 12.0845 13.2917 12.1223 13.1863 12.155C13.0808 12.1875 12.9739 12.215 12.8657 12.2368C12.7578 12.2588 12.6489 12.2753 12.539 12.2863C12.4293 12.2973 12.3194 12.3028 12.2091 12.3028C12.0989 12.3028 11.9888 12.2973 11.8792 12.2863C11.7695 12.2753 11.6606 12.2588 11.5524 12.237C11.4443 12.215 11.3373 12.1878 11.2319 12.155C11.1264 12.1225 11.0226 12.0845 10.9208 12.0415C10.819 11.9985 10.7195 11.9505 10.6221 11.8975C10.525 11.8445 10.4305 11.7865 10.3388 11.724C10.247 11.6615 10.1587 11.5948 10.0734 11.5233C9.98827 11.452 9.90659 11.3765 9.82884 11.297C9.75084 11.2175 9.67676 11.1343 9.60686 11.0473C9.53695 10.9603 9.47146 10.87 9.41014 10.7765C9.34882 10.683 9.29216 10.5865 9.24041 10.4873C9.18841 10.388 9.14131 10.2865 9.09912 10.1825C9.05693 10.0785 9.0199 9.97276 8.98801 9.86526C8.95588 9.75751 8.92914 9.64851 8.9078 9.53826C8.88622 9.42776 8.87003 9.31676 8.85924 9.20476C8.84844 9.09276 8.84305 8.98051 8.84329 8.86801Z" fill="#FFCC00"/>
</g>
</svg>
