<svg width="24" height="24" viewBox="0 0 24 24" fill="none" xmlns="http://www.w3.org/2000/svg">
<mask id="mask0_1168_1213" style="mask-type:luminance" maskUnits="userSpaceOnUse" x="3" y="3" width="18" height="18">
<path d="M3.66992 3.66968H20.3259V20.3257H3.66992V3.66968Z" fill="white"/>
</mask>
<g mask="url(#mask0_1168_1213)">
<path d="M11.9979 3.66968C7.40592 3.66968 3.66992 7.40568 3.66992 11.9977C3.66992 16.5897 7.40592 20.3257 11.9979 20.3257C16.5899 20.3257 20.3259 16.5897 20.3259 11.9977C20.3259 7.40568 16.5899 3.66968 11.9979 3.66968ZM18.3772 12.1627H19.1284C19.0452 15.8219 16.1969 18.8067 12.5927 19.1064V18.2119C12.5927 17.8839 12.3262 17.6174 11.9979 17.6174C11.6699 17.6174 11.4034 17.8839 11.4034 18.2119V19.1064C7.79892 18.8067 4.95242 15.8219 4.86742 12.1627H5.61867C5.94692 12.1627 6.21342 11.8962 6.21342 11.5679C6.21342 11.2399 5.94692 10.9734 5.61867 10.9734H4.94242C5.41392 7.71543 8.08717 5.16543 11.4034 4.88893V5.45343C11.4034 5.78168 11.6699 6.04818 11.9979 6.04818C12.3262 6.04818 12.5927 5.78168 12.5927 5.45343V4.88893C15.9087 5.16368 18.5822 7.71368 19.0534 10.9717H18.3772C18.0492 10.9717 17.7827 11.2382 17.7827 11.5664C17.7827 11.8944 18.0474 12.1627 18.3772 12.1627Z" fill="#FFCC00"/>
</g>
<path d="M14.3781 11.4033H12.5926V7.83376C12.5926 7.50576 12.3261 7.23926 11.9978 7.23926C11.6698 7.23926 11.4033 7.50576 11.4033 7.83376V11.9978C11.4033 12.326 11.6698 12.5925 11.9978 12.5925H14.3781C14.7061 12.5925 14.9726 12.326 14.9726 11.9978C14.9726 11.6698 14.7061 11.4033 14.3781 11.4033Z" fill="#FFCC00"/>
</svg>
