<svg width="23" height="24" viewBox="0 0 23 24" fill="none" xmlns="http://www.w3.org/2000/svg">
<path d="M13.61 5.39868C14.7 5.39868 15.61 4.47868 15.61 3.39868C15.61 2.86825 15.3993 2.35954 15.0242 1.98447C14.6491 1.6094 14.1404 1.39868 13.61 1.39868C12.5 1.39868 11.61 2.27868 11.61 3.39868C11.61 4.47868 12.5 5.39868 13.61 5.39868ZM10 19.2787L11 14.8987L13.11 16.8987V22.8987H15.11V15.3987L13 13.3987L13.61 10.3987C14.2948 11.1843 15.1401 11.814 16.0888 12.2453C17.0376 12.6765 18.0678 12.8993 19.11 12.8987V10.8987C17.2 10.8987 15.61 9.89868 14.8 8.47868L13.8 6.89868C13.4 6.27868 12.8 5.89868 12.11 5.89868C11.8 5.89868 11.61 5.97868 11.3 5.97868L6.11 8.17868V12.8987H8.11V9.47868L9.9 8.77868L8.3 16.8987L3.4 15.8987L3 17.8987L10 19.2787Z" fill="#FFCC00"/>
</svg>
