<svg width="23" height="21" viewBox="0 0 23 21" fill="none" xmlns="http://www.w3.org/2000/svg">
<g clip-path="url(#clip0_1151_3079)">
<path d="M15 0C15.2652 0 15.5196 0.105357 15.7071 0.292893C15.8946 0.48043 16 0.734784 16 1V1.999L21 2V8L18.98 7.999L21.747 15.595C21.9346 16.1029 22.017 16.6436 21.9895 17.1843C21.9619 17.725 21.8249 18.2545 21.5867 18.7407C21.3484 19.2269 21.014 19.6596 20.6036 20.0128C20.1932 20.3659 19.7153 20.632 19.1991 20.795C18.6828 20.9581 18.1388 21.0146 17.6 20.9611C17.0612 20.9077 16.5389 20.7455 16.0647 20.4842C15.5904 20.223 15.1742 19.8682 14.8411 19.4414C14.5081 19.0145 14.2651 18.5245 14.127 18.001H9.874C9.64642 18.8786 9.12759 19.6529 8.40248 20.1972C7.67736 20.7414 6.78893 21.0233 5.88269 20.9967C4.97644 20.9701 4.10608 20.6366 3.41415 20.0507C2.72221 19.4649 2.2497 18.6614 2.074 17.772C1.75009 17.6031 1.4787 17.3485 1.28934 17.0361C1.09998 16.7237 0.999909 16.3653 1 16V3C1 2.73478 1.10536 2.48043 1.29289 2.29289C1.48043 2.10536 1.73478 2 2 2H9C9.26522 2 9.51957 2.10536 9.70711 2.29289C9.89464 2.48043 10 2.73478 10 3V11C10 11.2449 10.09 11.4813 10.2527 11.6644C10.4155 11.8474 10.6397 11.9643 10.883 11.993L11 12H13C13.2449 12 13.4813 11.91 13.6644 11.7473C13.8474 11.5845 13.9643 11.3603 13.993 11.117L14 11V2H11V0H15ZM6 15C5.46957 15 4.96086 15.2107 4.58579 15.5858C4.21071 15.9609 4 16.4696 4 17C4 17.5304 4.21071 18.0391 4.58579 18.4142C4.96086 18.7893 5.46957 19 6 19C6.53043 19 7.03914 18.7893 7.41421 18.4142C7.78929 18.0391 8 17.5304 8 17C8 16.4696 7.78929 15.9609 7.41421 15.5858C7.03914 15.2107 6.53043 15 6 15ZM18 14.999C17.4696 14.999 16.9609 15.2097 16.5858 15.5848C16.2107 15.9599 16 16.4686 16 16.999C16 17.5294 16.2107 18.0381 16.5858 18.4132C16.9609 18.7883 17.4696 18.999 18 18.999C18.5304 18.999 19.0391 18.7883 19.4142 18.4132C19.7893 18.0381 20 17.5294 20 16.999C20 16.4686 19.7893 15.9599 19.4142 15.5848C19.0391 15.2097 18.5304 14.999 18 14.999ZM16.852 7.999H16V11C16 11.7956 15.6839 12.5587 15.1213 13.1213C14.5587 13.6839 13.7956 14 13 14H11C10.3796 14 9.77437 13.8076 9.26774 13.4495C8.76111 13.0913 8.37795 12.5849 8.171 12H3V14.354C3.48084 13.8095 4.10081 13.4062 4.79345 13.1872C5.48608 12.9682 6.22524 12.9419 6.93169 13.1111C7.63813 13.2802 8.28522 13.6385 8.80355 14.1474C9.32189 14.6564 9.69193 15.2968 9.874 16H14.126C14.378 15.0248 14.9884 14.1804 15.8355 13.6355C16.6826 13.0905 17.7041 12.885 18.696 13.06L16.852 7.999ZM8 7H3V10H8V7ZM19 4H16V6H19V4ZM8 4H3V5H8V4Z" fill="#FFCC00"/>
</g>
<defs>
<clipPath id="clip0_1151_3079">
<rect width="22.9947" height="20.9984" fill="white"/>
</clipPath>
</defs>
</svg>
