<svg width="24" height="24" viewBox="0 0 24 24" fill="none" xmlns="http://www.w3.org/2000/svg">
<path d="M8.7334 7.51493C8.8744 11.8297 15.1481 11.8287 15.2884 7.51493C15.1499 3.18918 8.8714 3.19018 8.7334 7.51493Z" fill="#FFCC00"/>
<mask id="mask0_1168_1239" style="mask-type:luminance" maskUnits="userSpaceOnUse" x="6" y="13" width="12" height="7">
<path d="M6.97607 13.1841H17.0241V19.9148H6.97607V13.1841Z" fill="white"/>
</mask>
<g mask="url(#mask0_1168_1239)">
<path d="M16.9822 18.1533C16.9122 12.2395 8.44498 11.3565 7.14973 17.1168C6.96823 17.7913 7.06373 19.2048 7.04048 19.9068H16.9822V18.1533Z" fill="#FFCC00"/>
</g>
<path d="M5.15197 8.0293C1.75622 8.11805 1.75697 13.085 5.15222 13.173C8.55872 13.0865 8.55797 8.11555 5.15197 8.0293Z" fill="#FFCC00"/>
<mask id="mask1_1168_1239" style="mask-type:luminance" maskUnits="userSpaceOnUse" x="1" y="14" width="6" height="6">
<path d="M1.47217 14.9761H6.97617V19.9148H1.47217V14.9761Z" fill="white"/>
</mask>
<g mask="url(#mask1_1168_1239)">
<path d="M6.26025 18.1533C6.2615 17.2158 6.4935 16.2863 6.93125 15.4566C4.584 14.0798 1.406 15.9361 1.47675 18.6676C1.4765 18.6676 1.4765 19.9068 1.4765 19.9068H6.26025V18.1533Z" fill="#FFCC00"/>
</g>
<path d="M18.8701 13.173C22.2659 13.0845 22.2654 8.11755 18.8701 8.0293C15.4636 8.11605 15.4641 13.087 18.8701 13.173Z" fill="#FFCC00"/>
<mask id="mask2_1168_1239" style="mask-type:luminance" maskUnits="userSpaceOnUse" x="17" y="14" width="6" height="6">
<path d="M17.0879 14.9761H22.5919V19.9148H17.0879V14.9761Z" fill="white"/>
</mask>
<g mask="url(#mask2_1168_1239)">
<path d="M22.5458 19.9068V18.6676C22.5868 16.6948 20.8533 14.9548 18.8703 14.9968C18.2383 14.9968 17.6296 15.1528 17.0913 15.4566C17.2238 15.7138 17.3411 15.9788 17.4423 16.2516C17.6498 16.8628 17.7603 17.5076 17.7623 18.1533V19.9068H22.5458Z" fill="#FFCC00"/>
</g>
</svg>
