<svg width="32" height="32" viewBox="0 0 32 32" fill="none" xmlns="http://www.w3.org/2000/svg">
<circle cx="16" cy="16" r="16" fill="#FFCC00"/>
<path d="M18.8 12L20 13.2L13.2 20L12 18.8L18.8 12ZM8 8H24C25.11 8 26 8.89 26 10V14C25.4696 14 24.9609 14.2107 24.5858 14.5858C24.2107 14.9609 24 15.4696 24 16C24 16.5304 24.2107 17.0391 24.5858 17.4142C24.9609 17.7893 25.4696 18 26 18V22C26 23.11 25.11 24 24 24H8C7.46957 24 6.96086 23.7893 6.58579 23.4142C6.21071 23.0391 6 22.5304 6 22V18C7.11 18 8 17.11 8 16C8 15.4696 7.78929 14.9609 7.41421 14.5858C7.03914 14.2107 6.53043 14 6 14V10C6 9.46957 6.21071 8.96086 6.58579 8.58579C6.96086 8.21071 7.46957 8 8 8ZM8 10V12.54C8.60768 12.8904 9.11236 13.3947 9.46325 14.0021C9.81415 14.6094 9.9989 15.2985 9.9989 16C9.9989 16.7015 9.81415 17.3906 9.46325 17.9979C9.11236 18.6053 8.60768 19.1096 8 19.46V22H24V19.46C23.3923 19.1096 22.8876 18.6053 22.5367 17.9979C22.1858 17.3906 22.0011 16.7015 22.0011 16C22.0011 15.2985 22.1858 14.6094 22.5367 14.0021C22.8876 13.3947 23.3923 12.8904 24 12.54V10H8ZM13.5 12C14.33 12 15 12.67 15 13.5C15 14.33 14.33 15 13.5 15C12.67 15 12 14.33 12 13.5C12 12.67 12.67 12 13.5 12ZM18.5 17C19.33 17 20 17.67 20 18.5C20 19.33 19.33 20 18.5 20C17.67 20 17 19.33 17 18.5C17 17.67 17.67 17 18.5 17Z" fill="white"/>
</svg>
